<svg preserveAspectRatio="none" width="100%" height="100%" overflow="visible" style="display: block;" viewBox="0 0 36 42" fill="none" xmlns="http://www.w3.org/2000/svg">
<path id="Vector" d="M18.6 14.5144L13.76 9.76744H25V16.6047H28V6.83721H13.76L18.6 2.09023L16.48 0L8 8.30233L16.48 16.6047L18.6 14.5144ZM18 24.4186C16.8133 24.4186 15.6533 24.7623 14.6666 25.4063C13.6799 26.0502 12.9108 26.9655 12.4567 28.0364C12.0026 29.1072 11.8838 30.2856 12.1153 31.4224C12.3468 32.5592 12.9182 33.6034 13.7574 34.423C14.5965 35.2426 15.6656 35.8008 16.8295 36.0269C17.9933 36.2531 19.1997 36.137 20.2961 35.6934C21.3925 35.2499 22.3295 34.4987 22.9888 33.535C23.6481 32.5712 24 31.4382 24 30.2791C24 28.7248 23.3679 27.2341 22.2426 26.1351C21.1174 25.036 19.5913 24.4186 18 24.4186ZM0 18.5581V42H36V18.5581M32 34.186C30.9391 34.186 29.9217 34.5977 29.1716 35.3304C28.4214 36.0631 28 37.0568 28 38.093H8C8 37.0568 7.57857 36.0631 6.82843 35.3304C6.07828 34.5977 5.06087 34.186 4 34.186V26.3721C5.06087 26.3721 6.07828 25.9605 6.82843 25.2278C7.57857 24.4951 8 23.5013 8 22.4651H28C28 23.5013 28.4214 24.4951 29.1716 25.2278C29.9217 25.9605 30.9391 26.3721 32 26.3721V34.186Z" fill="var(--fill-0, #FFBE00)"/>
</svg>
