<svg width="23" height="23" viewBox="0 0 23 23" fill="none" xmlns="http://www.w3.org/2000/svg">
<path fill-rule="evenodd" clip-rule="evenodd" d="M0 6.38889C0 4.69445 0.673113 3.06941 1.87126 1.87126C3.06941 0.673113 4.69445 0 6.38889 0H16.6111C18.3055 0 19.9306 0.673113 21.1287 1.87126C22.3269 3.06941 23 4.69445 23 6.38889V16.6111C23 18.3055 22.3269 19.9306 21.1287 21.1287C19.9306 22.3269 18.3055 23 16.6111 23H6.38889C4.69445 23 3.06941 22.3269 1.87126 21.1287C0.673113 19.9306 0 18.3055 0 16.6111V6.38889ZM6.38889 2.55556C5.37223 2.55556 4.3972 2.95942 3.67831 3.67831C2.95942 4.3972 2.55556 5.37223 2.55556 6.38889V16.6111C2.55556 17.6278 2.95942 18.6028 3.67831 19.3217C4.3972 20.0406 5.37223 20.4444 6.38889 20.4444H16.6111C17.6278 20.4444 18.6028 20.0406 19.3217 19.3217C20.0406 18.6028 20.4444 17.6278 20.4444 16.6111V6.38889C20.4444 5.37223 20.0406 4.3972 19.3217 3.67831C18.6028 2.95942 17.6278 2.55556 16.6111 2.55556H6.38889ZM16.0962 5.38456C16.0962 5.04567 16.2308 4.72066 16.4704 4.48103C16.71 4.2414 17.0351 4.10678 17.3739 4.10678H17.3867C17.7256 4.10678 18.0506 4.2414 18.2902 4.48103C18.5299 4.72066 18.6645 5.04567 18.6645 5.38456C18.6645 5.72344 18.5299 6.04845 18.2902 6.28808C18.0506 6.52771 17.7256 6.66233 17.3867 6.66233H17.3739C17.0351 6.66233 16.71 6.52771 16.4704 6.28808C16.2308 6.04845 16.0962 5.72344 16.0962 5.38456ZM11.5 7.66667C10.4833 7.66667 9.50831 8.07053 8.78942 8.78942C8.07053 9.50831 7.66667 10.4833 7.66667 11.5C7.66667 12.5167 8.07053 13.4917 8.78942 14.2106C9.50831 14.9295 10.4833 15.3333 11.5 15.3333C12.5167 15.3333 13.4917 14.9295 14.2106 14.2106C14.9295 13.4917 15.3333 12.5167 15.3333 11.5C15.3333 10.4833 14.9295 9.50831 14.2106 8.78942C13.4917 8.07053 12.5167 7.66667 11.5 7.66667ZM5.11111 11.5C5.11111 9.80556 5.78422 8.18052 6.98237 6.98237C8.18052 5.78422 9.80556 5.11111 11.5 5.11111C13.1944 5.11111 14.8195 5.78422 16.0176 6.98237C17.2158 8.18052 17.8889 9.80556 17.8889 11.5C17.8889 13.1944 17.2158 14.8195 16.0176 16.0176C14.8195 17.2158 13.1944 17.8889 11.5 17.8889C9.80556 17.8889 8.18052 17.2158 6.98237 16.0176C5.78422 14.8195 5.11111 13.1944 5.11111 11.5Z" fill="#FFBE02"/>
</svg>
