<svg preserveAspectRatio="none" width="100%" height="100%" overflow="visible" style="display: block;" viewBox="0 0 84 85" fill="none" xmlns="http://www.w3.org/2000/svg">
<g id="Group">
<path id="Vector" d="M37.7746 84.5839C35.382 83.7199 32.7235 83.3433 30.9955 81.1057C30.8183 80.8842 30.2866 80.9285 29.91 80.9285C25.7672 80.7734 24.2828 79.2891 24.1721 75.1684C24.1721 74.9026 24.1278 74.6146 24.0835 74.1272C21.9345 74.2601 20.0293 73.7063 18.9437 71.646C17.9025 69.6742 18.1905 67.8133 19.5862 66.1518C17.7031 62.7179 17.8803 61.5659 20.6053 58.5529C20.8711 58.2428 20.9597 57.6668 20.9154 57.2237C20.6053 53.9006 19.1653 51.087 16.7948 48.8052C13.3388 45.4599 10.8575 41.6051 9.88275 36.842C7.53442 25.5878 14.2471 13.9791 25.1247 10.5674C36.1352 7.08922 48.0984 12.6499 52.6178 23.3503C52.8172 23.7933 52.9944 24.2364 53.2603 24.8346C55.7194 23.5496 58.112 22.309 60.5046 21.0684C67.4831 17.4351 74.4616 13.7797 81.4844 10.1908C82.1269 9.85847 82.9909 9.94708 83.7663 9.85847C83.8328 10.6782 84.1429 11.5422 83.9214 12.2733C80.266 24.2807 76.5441 36.266 72.8887 48.2735C72.4235 49.8243 71.6702 50.4224 69.9865 49.9794C68.0813 49.4477 66.0874 49.2483 64.16 48.8052C63.1853 48.5836 62.5428 48.7387 61.8339 49.4477C59.7735 51.508 57.6024 53.4797 55.4978 55.4957C52.7729 58.0877 52.5956 62.0311 55.1212 64.889C55.5864 65.4207 56.1403 65.8859 56.6498 66.4176C58.5551 68.3893 58.6437 70.3389 56.9821 72.4657C55.5864 74.2601 55.6529 74.814 57.4695 76.1654C58.3557 76.83 59.3969 77.3395 60.1058 78.1371C60.6154 78.7131 61.1028 79.7543 60.9255 80.4189C60.7483 81.0614 59.7957 81.8368 59.0868 81.9254C56.5391 82.2799 53.9027 82.2356 51.355 82.6122C47.8325 83.1439 44.3322 83.9193 40.8319 84.5839C39.7685 84.5839 38.7716 84.5839 37.7746 84.5839ZM23.441 40.7633C23.4188 40.6525 23.3745 40.5196 23.3524 40.4088C32.502 35.6457 41.6294 30.8826 50.7347 26.1195C48.2756 17.9225 41.2085 12.5834 32.6792 12.2954C20.3394 11.8966 10.8354 22.1318 12.2311 34.3386C12.7628 39.0131 14.7566 42.9787 18.124 46.2353C21.0927 49.1375 23.153 52.5049 23.5961 56.692C23.7068 57.7332 24.2385 57.9105 25.1247 57.8883C29.3118 57.8662 33.4989 57.8662 37.686 57.8662C38.4392 57.8662 39.1925 57.8662 39.9679 57.8662C40.278 53.8341 41.6737 50.4889 44.0885 47.6975C42.8922 45.327 41.275 44.0642 38.5943 43.6876C33.5432 42.9787 28.4921 41.7824 23.441 40.7633ZM70.341 47.2544C73.797 36.0223 77.2087 24.9675 80.7534 13.5139C63.9828 22.2426 47.6331 30.7718 30.8626 39.5005C34.8281 40.2759 38.3063 40.9848 41.8066 41.6051C42.2497 41.6938 42.8479 41.3614 43.291 41.0734C46.4147 39.0131 49.5162 36.9085 52.64 34.826C57.536 31.5472 62.432 28.2463 67.3502 24.9896C68.5908 24.1478 69.7428 24.325 69.8536 25.3884C69.9201 25.9644 69.5878 26.6512 69.2333 27.1607C65.5336 32.4998 61.7674 37.8168 58.0455 43.1338C57.7354 43.599 57.4474 44.0864 57.0708 44.6845C61.6123 45.5707 65.9323 46.4126 70.341 47.2544ZM56.9157 79.1783C56.5169 78.8682 55.9852 78.4694 55.4757 78.0706C52.7286 75.8331 52.4184 73.7506 54.656 71.0256C55.8523 69.5856 55.232 68.6552 54.1243 67.7025C51.0227 65.0219 50.203 61.6102 50.8233 57.6889C50.9119 57.2015 50.8898 56.5369 50.6239 56.1825C49.1175 54.0778 47.5224 52.0397 45.9051 49.8907C43.9556 52.1504 43.003 54.676 42.7593 57.4896C42.7371 57.8662 42.8922 58.3757 43.158 58.6194C45.8387 61.3222 46.0381 62.6957 44.1328 66.1739C45.5285 67.8576 45.7944 69.6964 44.7753 71.6903C43.7119 73.7727 41.718 74.1715 39.5469 74.238C39.8349 77.5168 38.9488 79.9759 35.1605 81.0614C36.2682 81.3494 36.822 81.6152 37.398 81.6152C39.1925 81.5931 41.0091 81.5931 42.8036 81.3494C47.5224 80.6848 52.219 79.9094 56.9157 79.1783ZM62.8529 31.5694C62.7643 31.4808 62.6979 31.4143 62.6092 31.3257C56.6055 35.3577 50.6018 39.3897 44.4651 43.5104C46.9021 46.7449 49.2504 49.8243 51.7981 53.1917C51.931 52.5049 51.9975 52.1947 52.0639 51.9067C52.7729 48.1849 53.371 44.5073 55.8966 41.3614C58.4 38.2599 60.5489 34.8482 62.8529 31.5694ZM31.8374 64.6896C34.5844 64.6896 37.3315 64.7118 40.0786 64.6896C41.8066 64.6896 42.715 63.9585 42.715 62.6514C42.715 61.3665 41.8288 60.6133 40.0786 60.6133C34.5844 60.5911 29.0681 60.5911 23.5739 60.6133C21.8902 60.6133 20.8711 61.4551 21.0041 62.7179C21.1813 64.1801 22.1561 64.7118 23.5518 64.7118C26.321 64.6674 29.0903 64.6896 31.8374 64.6896ZM31.9924 71.4244C34.7395 71.4244 37.5088 71.4466 40.2559 71.4244C41.851 71.4023 42.7371 70.649 42.715 69.3862C42.6928 68.1235 41.8288 67.3924 40.2116 67.3924C34.6509 67.3702 29.0681 67.3702 23.5075 67.3924C21.9345 67.3924 21.0041 68.1899 21.0705 69.4527C21.1591 70.9813 22.1561 71.4687 23.5518 71.4466C26.3653 71.4023 29.1789 71.4244 31.9924 71.4244ZM27.0521 74.1715C26.4761 77.3838 27.1407 78.2257 30.1537 78.2478C31.3057 78.2478 32.4577 78.2478 33.6097 78.2478C36.5783 78.2478 37.3537 77.2288 36.6448 74.1715C33.4546 74.1715 30.2423 74.1715 27.0521 74.1715ZM54.6781 52.5271C56.4283 50.8655 57.8904 49.492 59.552 47.8969C58.0898 47.6089 56.96 47.3873 55.7194 47.1436C55.3649 48.9381 55.0547 50.5332 54.6781 52.5271Z" fill="var(--fill-0, #FFBE02)"/>
<path id="Vector_2" d="M33.1666 3.30087C33.1666 4.00979 33.3217 4.78518 33.1223 5.42765C32.9672 5.93719 32.3469 6.62396 31.926 6.62396C31.4829 6.62396 30.6853 5.95934 30.6189 5.51626C30.4638 4.0541 30.4638 2.54763 30.6189 1.10762C30.6632 0.664541 31.4607 -7.89762e-05 31.9038 -7.89762e-05C32.3247 -7.89762e-05 32.945 0.686695 33.1001 1.19624C33.3438 1.8387 33.1666 2.59194 33.1666 3.30087Z" fill="var(--fill-0, #FFBE02)"/>
<path id="Vector_3" d="M3.19222 33.2312C2.48329 33.2312 1.68575 33.4085 1.06543 33.1648C0.578046 32.9875 0.0463506 32.3229 0.00204264 31.8134C-0.0422653 31.4589 0.644508 30.7057 1.06543 30.6614C2.48329 30.5063 3.94545 30.5063 5.36331 30.6614C5.8507 30.7057 6.24947 31.4368 6.67039 31.8355C6.22731 32.3008 5.8507 32.9654 5.319 33.1869C4.69869 33.4306 3.90115 33.2534 3.19222 33.2312Z" fill="var(--fill-0, #FFBE02)"/>
<path id="Vector_4" d="M10.0821 8.72872C10.5473 9.01672 10.9683 9.1718 11.2563 9.4598C12.1424 10.2795 13.095 11.077 13.804 12.0518C14.1584 12.5392 13.9812 13.3811 14.0698 14.0678C13.383 14.0235 12.519 14.2451 12.0538 13.9128C11.0347 13.1817 10.1707 12.2069 9.37317 11.2543C9.08517 10.8998 8.93009 10.2352 9.04086 9.76995C9.12948 9.37118 9.68333 9.10534 10.0821 8.72872Z" fill="var(--fill-0, #FFBE02)"/>
<path id="Vector_5" d="M55.0325 10.1243C54.8332 10.5452 54.7445 10.8775 54.523 11.0991C53.5704 12.096 52.6621 13.1594 51.5765 13.9791C51.1777 14.2892 50.3359 14.0234 49.6934 14.0234C49.7377 13.3809 49.5162 12.5612 49.8485 12.1403C50.6461 11.0991 51.6208 10.1907 52.6399 9.32674C52.9722 9.03874 53.6811 8.95012 54.1021 9.08305C54.4787 9.21597 54.7445 9.76982 55.0325 10.1243Z" fill="var(--fill-0, #FFBE02)"/>
<path id="Vector_6" d="M13.0729 49.4035C14.1584 49.3814 14.8895 50.5112 14.2028 51.3531C13.2058 52.5715 12.0317 53.6792 10.8132 54.7205C10.5473 54.942 9.66119 54.8312 9.35103 54.5432C9.04087 54.2552 8.84149 53.3469 9.04087 53.1032C10.1486 51.8405 11.4114 50.6884 12.6298 49.4921C12.7406 49.4035 12.94 49.4257 13.0729 49.4035Z" fill="var(--fill-0, #FFBE02)"/>
</g>
</svg>
