<svg preserveAspectRatio="none" width="100%" height="100%" overflow="visible" style="display: block;" viewBox="0 0 39 39" fill="none" xmlns="http://www.w3.org/2000/svg">
<path id="Vector" d="M19.5 39C24.6717 39 29.6316 36.9455 33.2886 33.2886C36.9455 29.6316 39 24.6717 39 19.5C39 14.3283 36.9455 9.36838 33.2886 5.71142C29.6316 2.05446 24.6717 0 19.5 0C14.3283 0 9.36838 2.05446 5.71142 5.71142C2.05446 9.36838 0 14.3283 0 19.5C0 24.6717 2.05446 29.6316 5.71142 33.2886C9.36838 36.9455 14.3283 39 19.5 39ZM19.5 3.65625C23.702 3.65625 27.7319 5.3255 30.7032 8.29678C33.6745 11.2681 35.3438 15.298 35.3438 19.5C35.3438 23.702 33.6745 27.7319 30.7032 30.7032C27.7319 33.6745 23.702 35.3438 19.5 35.3438C15.298 35.3438 11.2681 33.6745 8.29678 30.7032C5.3255 27.7319 3.65625 23.702 3.65625 19.5C3.65625 15.298 5.3255 11.2681 8.29678 8.29678C11.2681 5.3255 15.298 3.65625 19.5 3.65625ZM19.5 22.8052C23.9168 22.8052 28.1166 21.6328 31.6875 19.5707C31.1317 26.3664 25.8546 31.6875 19.5 31.6875C13.1454 31.6875 7.86825 26.3591 7.3125 19.5658C11.0205 21.696 15.2237 22.8132 19.5 22.8052ZM9.75 13.4062C9.75 11.388 10.842 9.75 12.1875 9.75C13.533 9.75 14.625 11.388 14.625 13.4062C14.625 15.4245 13.533 17.0625 12.1875 17.0625C10.842 17.0625 9.75 15.4245 9.75 13.4062ZM24.375 13.4062C24.375 11.388 25.467 9.75 26.8125 9.75C28.158 9.75 29.25 11.388 29.25 13.4062C29.25 15.4245 28.158 17.0625 26.8125 17.0625C25.467 17.0625 24.375 15.4245 24.375 13.4062Z" fill="var(--fill-0, #FFBE00)"/>
</svg>
