<svg preserveAspectRatio="none" width="100%" height="100%" overflow="visible" style="display: block;" viewBox="0 0 42 45" fill="none" xmlns="http://www.w3.org/2000/svg">
<g id="Group">
<path id="Vector" d="M18.9501 2.53094C19.5772 2.18269 20.2827 1.99994 21 1.99994C21.7173 1.99994 22.4228 2.18269 23.0499 2.53094L38.9149 11.3427C39.2438 11.5256 39.5178 11.7931 39.7086 12.1176C39.8994 12.442 40 12.8115 40 13.1878V30.5728C40.0002 31.3261 39.7989 32.0657 39.4169 32.715C39.0349 33.3642 38.4862 33.8994 37.8277 34.2652L23.0499 42.4732C22.4228 42.8214 21.7173 43.0042 21 43.0042C20.2827 43.0042 19.5772 42.8214 18.9501 42.4732L4.17233 34.263C3.51442 33.8977 2.96611 33.3631 2.58418 32.7147C2.20224 32.0662 2.00055 31.3275 2 30.5749V13.1878C1.99998 12.8115 2.10058 12.442 2.29137 12.1176C2.48215 11.7931 2.75619 11.5256 3.08511 11.3427L18.9501 2.53094Z" stroke="var(--stroke-0, #FFBE00)" stroke-width="3" stroke-linecap="round" stroke-linejoin="round"/>
<path id="Vector_2" d="M2 11.9465L21 22.5021M21 22.5021L40 11.9465M21 22.5021V42.5577" stroke="var(--stroke-0, #FFBE00)" stroke-width="3" stroke-linejoin="round"/>
<path id="Vector_3" d="M11.5 17.2243L30.5 6.66877M8.33333 23.1945L14.6667 26.7243" stroke="var(--stroke-0, #FFBE00)" stroke-width="3" stroke-linecap="round" stroke-linejoin="round"/>
</g>
</svg>
