<svg preserveAspectRatio="none" width="100%" height="100%" overflow="visible" style="display: block;" viewBox="0 0 73 73" fill="none" xmlns="http://www.w3.org/2000/svg">
<g id="Group">
<path id="Vector" d="M39.1557 8.3033e-05C41.3951 0.464881 43.6346 0.929679 45.8741 1.39448C46.1417 1.45082 46.4093 1.54941 46.6769 1.63392C47.7192 1.97195 48.2544 2.69028 48.0009 3.7748C47.7192 4.95793 46.8319 5.29596 45.7192 5.0706C43.8882 4.7044 42.0712 4.16918 40.2261 3.92974C19.5074 1.25363 1.69014 18.3807 3.73244 39.1276C5.39444 56.0716 18.9299 67.4662 33.8316 68.4521C50.9305 69.5648 65.0153 57.6632 67.9309 42.1277C68.8746 37.0994 68.6351 32.1416 67.283 27.226C67.1844 26.8598 67.0576 26.5076 67.0154 26.1414C66.9027 25.1133 67.3112 24.3808 68.3393 24.1414C69.3675 23.902 70.1563 24.3527 70.4098 25.3386C70.945 27.4232 71.3535 29.5359 71.8183 31.6345C71.9169 32.0852 72.0155 32.5359 72.1 32.9726C72.1 35.043 72.1 37.0994 72.1 39.1699C72.0155 39.4797 71.8887 39.7755 71.8464 40.0995C70.283 54.8744 59.4518 67.3394 44.9304 70.9733C43.029 71.4522 41.0853 71.7339 39.1557 72.1142C37.0852 72.1142 35.0288 72.1142 32.9584 72.1142C32.6485 72.0297 32.3386 71.9029 32.0288 71.8606C17.3806 70.1846 5.28176 59.9168 1.38028 45.7334C0.774633 43.5784 0.450683 41.353 -3.05176e-05 39.1558C-3.05176e-05 37.0853 -3.05176e-05 35.0289 -3.05176e-05 32.9585C0.0844782 32.6486 0.211241 32.3387 0.253496 32.0148C2.08452 17.0427 12.3242 5.14103 26.7751 1.23954C28.8034 0.690237 30.902 0.408542 32.9584 8.3033e-05C35.0288 8.3033e-05 37.0852 8.3033e-05 39.1557 8.3033e-05Z" fill="var(--fill-0, #FFBE02)"/>
<path id="Vector_2" d="M36.1697 57.5646C48.508 57.4801 58.2405 47.2686 57.6912 34.9022C57.6208 33.3528 58.1983 32.5078 59.3392 32.4514C60.3955 32.3951 61.1702 33.1416 61.2406 34.6064C61.6209 42.5502 58.9166 49.3109 53.001 54.5645C45.7051 61.0435 37.1697 62.8323 27.9583 59.6351C18.6905 56.4096 13.1411 49.6489 11.3805 40.015C8.78888 25.9161 19.3665 12.2257 33.6626 10.958C35.0147 10.8454 36.381 10.8313 37.7331 10.9299C38.9726 11.0285 39.7191 11.9299 39.55 12.9722C39.3669 14.2116 38.5078 14.4792 37.3951 14.437C25.6061 14.1271 16.5778 21.6484 14.8031 33.2261C13.1129 44.2826 21.4229 55.5223 32.5358 57.1702C33.7471 57.3533 34.9584 57.4378 36.1697 57.5646Z" fill="var(--fill-0, #FFBE02)"/>
<path id="Vector_3" d="M61.3533 10.7609C63.0998 10.7609 64.6632 10.6341 66.1844 10.8172C66.959 10.9017 67.9872 11.3947 68.283 12.0003C68.5365 12.5074 68.0999 13.6483 67.6069 14.1694C64.3252 17.5779 60.973 20.9301 57.5645 24.2259C57.0574 24.7189 56.1842 24.8598 55.4799 25.1414C55.3954 25.1696 55.2968 25.1555 55.1982 25.1414C51.0432 24.3527 48.0291 25.9725 45.3811 29.1697C43.0572 31.9726 40.2684 34.3952 37.6627 36.9727C36.5077 38.1135 35.1133 37.9586 34.5359 36.691C34.0429 35.6346 34.6485 34.9163 35.3387 34.2261C38.8881 30.6768 42.4233 27.1133 46.0009 23.5921C46.691 22.9161 47.1417 22.24 46.9727 21.2681C46.2403 17.0286 47.7615 13.8595 51.1136 11.1834C53.5221 9.2679 55.5363 6.87349 57.7194 4.66218C58.4096 3.95794 59.1279 3.33821 60.1702 3.74666C61.2829 4.18329 61.3674 5.18331 61.3533 6.2115C61.3392 7.66223 61.3533 9.11297 61.3533 10.7609ZM62.0998 14.6624C60.7195 14.3525 59.1138 14.4652 58.3673 13.7046C57.6208 12.9581 57.7617 11.3384 57.4941 10.0003C55.2687 12.2116 53.0573 14.4229 50.8601 16.6342C50.7052 16.7892 50.5784 17.0427 50.5784 17.254C50.5503 18.6484 50.5643 20.0287 50.5643 21.5639C51.9024 21.5639 53.0714 21.6062 54.2264 21.5498C54.7053 21.5217 55.2968 21.4231 55.6208 21.1132C57.8039 19.0005 59.9307 16.8314 62.0998 14.6624Z" fill="var(--fill-0, #FFBE02)"/>
<path id="Vector_4" d="M36.3669 50.311C28.578 50.5222 22.0567 44.1841 21.8173 36.1698C21.5779 28.4795 27.9019 21.8315 35.6204 21.6203C37.0711 21.578 37.9021 22.1555 37.9725 23.2541C38.043 24.3245 37.2824 25.0147 35.8457 25.1555C30.1696 25.7189 26.4089 29.0993 25.5357 34.4092C24.592 40.2122 28.6907 45.6348 34.7612 46.5926C40.2965 47.4799 45.9164 43.3672 46.7755 37.8037C46.8741 37.198 46.9446 36.5924 46.9868 35.9867C47.0713 34.8036 47.7192 34.0994 48.8742 34.1698C50.0432 34.2402 50.5221 35.0431 50.5362 36.2121C50.5925 43.015 44.9868 49.3673 38.212 50.1419C37.5782 50.2124 36.9725 50.2546 36.3669 50.311Z" fill="var(--fill-0, #FFBE02)"/>
</g>
</svg>
